<?xml version="1.0" encoding="UTF-8"?>
<svg id="Layer_1" data-name="Layer 1" xmlns="http://www.w3.org/2000/svg" viewBox="0 0 91.71 94.67">
  <defs>
    <style>
      .cls-1 {
        fill: #191919;
        stroke-width: 0px;
      }
    </style>
  </defs>
  <g>
    <path class="cls-1" d="M50.72,81.7c-2.09,1.22-4.57,1.83-7.45,1.83-3.29,0-6.08-.8-8.37-2.41-.33-.23-.63-.5-.94-.76v12.63c2.85,1,5.95,1.51,9.31,1.51,2.8,0,5.36-.33,7.67-.98v-11.97c-.08.05-.15.11-.23.15Z"/>
    <path class="cls-1" d="M44.1,52.66c2.6,1.09,4.86,2.31,6.78,3.65.03.02.05.04.07.06v-13.66c-.5-.23-.99-.47-1.51-.69-2.88-1.22-5.51-2.33-7.91-3.33-2.4-1-4.47-2.11-6.21-3.33-.48-.34-.93-.69-1.35-1.07v14.11c.65.32,1.32.63,2.02.92,2.81,1.13,5.51,2.24,8.11,3.33Z"/>
    <path class="cls-1" d="M35.78,12.53c1.85-1.04,3.94-1.52,6.27-1.44,2.81,0,5.17.72,7.09,2.15.67.5,1.26,1.08,1.82,1.68V1.54c-2.62-1-5.5-1.54-8.7-1.54-3.01,0-5.76.5-8.28,1.39v12.46c.56-.5,1.15-.95,1.81-1.32Z"/>
  </g>
  <g>
    <path class="cls-1" d="M75.87,47.16c-2.39-1.82-5.05-3.38-7.94-4.73v13.66c1.88,1.34,3.38,3.02,4.5,5.03,1.13,2.05,1.69,4.68,1.69,7.9,0,2.79-.55,5.24-1.64,7.37-1.05,2.05-2.58,3.67-4.55,4.87v11.97c2.22-.62,4.21-1.53,5.99-2.74,3.63-2.48,6.37-5.68,8.22-9.59,1.85-3.92,2.77-8.13,2.77-12.66,0-5.22-.81-9.51-2.41-12.86-1.61-3.35-3.82-6.09-6.62-8.22Z"/>
    <path class="cls-1" d="M70.42,18.51c.96,2.26,1.44,4.57,1.44,6.92h10.89c-.07-5.13-1.1-9.61-3.08-13.44-1.99-3.83-4.71-6.83-8.17-9.01-1.12-.7-2.33-1.25-3.57-1.73v13.39c1.03,1.12,1.87,2.4,2.5,3.86Z"/>
  </g>
  <g>
    <path class="cls-1" d="M14.27,31.06c-.96-1.7-1.44-3.94-1.44-6.72s.53-5.18,1.59-7.18c.68-1.29,1.55-2.35,2.55-3.25V1.45c-1.38.49-2.71,1.06-3.94,1.81-3.49,2.13-6.18,5.09-8.06,8.87-1.88,3.78-2.82,8.25-2.82,13.38,0,6,1.39,10.88,4.16,14.62,2.43,3.29,5.99,6.07,10.67,8.34v-14.11c-1.11-.98-2.01-2.08-2.71-3.3Z"/>
    <path class="cls-1" d="M12.63,74.65c-1.23-2.74-1.85-5.76-1.85-9.07H0v.12c.02,5.78,1.11,10.83,3.28,15.15,2.19,4.35,5.27,7.72,9.24,10.11,1.41.85,2.89,1.54,4.45,2.08v-12.63c-1.83-1.52-3.3-3.42-4.35-5.76Z"/>
  </g>
  <path class="cls-1" d="M16.98,47.18s0,.08,0,.12v-.12h0Z"/>
  <g>
    <path class="cls-1" d="M57.62,13.24c1.92,1.44,3.35,3.29,4.31,5.55.96,2.26,1.44,4.57,1.44,6.92h4.56V7.5c-1.43-1.64-3.06-3.07-4.92-4.24C59.61,1.12,55.58.04,50.95,0v11.11c2.62.07,4.85.76,6.67,2.13Z"/>
    <path class="cls-1" d="M67.38,47.44c-2.81-2.13-5.96-3.94-9.45-5.42-2.51-1.06-4.83-2.04-6.98-2.94v12.9c.54.23,1.1.45,1.64.68,2.6,1.09,4.86,2.31,6.78,3.65,1.92,1.35,3.44,3.05,4.57,5.09,1.13,2.05,1.69,4.68,1.69,7.9,0,2.79-.55,5.24-1.64,7.37-1.1,2.13-2.69,3.81-4.78,5.02-2.09,1.22-4.57,1.83-7.45,1.83-.28,0-.54-.04-.82-.05v10.99c.27,0,.54.02.82.02,5.48,0,10.03-1.24,13.66-3.72.89-.61,1.72-1.26,2.5-1.95v-40.9c-.19-.15-.36-.33-.55-.47Z"/>
  </g>
  <g>
    <path class="cls-1" d="M33.97,52v-12.9c-.31-.13-.63-.26-.93-.39-2.4-1-4.47-2.11-6.21-3.33-1.75-1.22-3.1-2.68-4.06-4.37-.96-1.7-1.44-3.94-1.44-6.72s.53-5.18,1.59-7.18c1.06-2,2.52-3.52,4.37-4.57,1.85-1.04,3.94-1.52,6.27-1.44.14,0,.27.02.41.03V.02c-.07,0-.14-.01-.21-.01C29.1.01,25.03,1.08,21.53,3.21c-1.71,1.05-3.22,2.3-4.55,3.74v35.63c2.65,2.64,6.14,4.9,10.51,6.77,2.23.9,4.37,1.78,6.47,2.65Z"/>
    <path class="cls-1" d="M26.41,81.13c-2.3-1.61-4.06-3.78-5.29-6.52-1.23-2.74-1.85-5.76-1.85-9.07h-2.29v22.33c1.22,1.15,2.57,2.17,4.04,3.05,3.76,2.26,8.08,3.44,12.95,3.56v-10.99c-2.92-.13-5.46-.89-7.55-2.36Z"/>
  </g>
  <path class="cls-1" d="M88.33,94.67c-.67,0-1.26-.15-1.77-.44-.51-.3-.91-.7-1.2-1.22-.29-.52-.43-1.11-.43-1.76s.14-1.26.43-1.77.69-.92,1.2-1.21c.51-.29,1.1-.44,1.77-.44s1.24.15,1.75.44c.51.3.91.7,1.2,1.21s.43,1.1.43,1.77-.14,1.25-.43,1.76c-.29.52-.69.92-1.2,1.22-.51.29-1.09.44-1.75.44ZM88.33,94c.55,0,1.02-.12,1.41-.35.4-.23.7-.56.92-.98.22-.42.33-.9.33-1.43s-.11-1.01-.33-1.42-.52-.74-.92-.98c-.4-.24-.87-.36-1.41-.36s-1.02.12-1.43.36c-.41.24-.72.57-.94.98-.22.41-.33.89-.33,1.42s.11,1.01.33,1.43c.22.42.54.74.94.98.41.23.88.35,1.43.35ZM86.96,93.01v-3.6h1.64c.38,0,.68.1.89.3s.33.47.33.82-.11.6-.33.8-.52.3-.89.3h-.79v1.37h-.85ZM87.81,90.97h.69c.13,0,.24-.03.33-.09s.13-.16.13-.31-.04-.24-.13-.3c-.09-.06-.2-.08-.33-.08h-.69v.79ZM88.95,93.01l-1-1.64h.94l1.09,1.64h-1.02Z"/>
</svg>