<?xml version="1.0" encoding="utf-8"?>
<!-- Generator: Adobe Illustrator 15.0.0, SVG Export Plug-In . SVG Version: 6.00 Build 0)  -->
<!DOCTYPE svg PUBLIC "-//W3C//DTD SVG 1.1//EN" "http://www.w3.org/Graphics/SVG/1.1/DTD/svg11.dtd">
<svg version="1.1" id="Layer_1" xmlns="http://www.w3.org/2000/svg" xmlns:xlink="http://www.w3.org/1999/xlink" x="0px" y="0px"
	 width="800px" height="800px" viewBox="0 0 800 800" enable-background="new 0 0 800 800" xml:space="preserve">
<g>
	<path fill="#E44D26" d="M752.7,0l-64.263,719.918L399.568,800l-288.072-79.972L47.3,0H752.7z"/>
	<path fill="#F16529" d="M400,738.787l233.421-64.712l54.914-615.204H400V738.787z"/>
	<path fill="#EBEBEB" d="M275.073,235.491H400v-88.309H178.564l2.112,23.691l21.707,243.355H400v-88.308H283.145L275.073,235.491z
		 M294.978,458.386h-88.65l12.372,138.657l180.895,50.214l0.406-0.11v-91.878l-0.386,0.102l-98.349-26.555L294.978,458.386
		L294.978,458.386z"/>
	<path fill="#FFFFFF" d="M399.697,414.229h108.742l-10.253,114.529l-98.493,26.584v91.873l181.039-50.173l1.327-14.92
		l20.755-232.489l2.154-23.713H399.697V414.229L399.697,414.229z M399.697,235.275v0.216h213.306l1.771-19.848l4.025-44.769
		l2.109-23.691H399.697v88.095V235.275z"/>
</g>
</svg>
